<svg width="24" height="24" viewBox="0 0 24 24" fill="none" xmlns="http://www.w3.org/2000/svg">
<g clip-path="url(#clip0_2359_7054)">
<path d="M21.5934 22.0032C21.1185 22.3371 20.7754 22.5783 19.9979 22.5783C19.2203 22.5783 18.8772 22.3371 18.4023 22.0032C17.8758 21.633 17.2204 21.1722 15.9981 21.1722C14.7758 21.1722 14.1205 21.633 13.5939 22.0032C13.1191 22.3371 12.776 22.5783 11.9985 22.5783C11.2211 22.5783 10.878 22.3371 10.4031 22.0032C9.8766 21.633 9.22129 21.1722 7.99903 21.1722C6.77668 21.1722 6.12142 21.633 5.59487 22.0032C5.12003 22.3371 4.77696 22.5783 3.99949 22.5783C3.22203 22.5783 2.879 22.3371 2.40416 22.0032C1.87761 21.633 1.22235 21.1722 0 21.1722V22.5783C0.777417 22.5783 1.12054 22.8195 1.59538 23.1535C2.12193 23.5237 2.77723 23.9844 3.99949 23.9844C5.22184 23.9844 5.87711 23.5237 6.40365 23.1535C6.87849 22.8196 7.22157 22.5783 7.99903 22.5783C8.7765 22.5783 9.11952 22.8195 9.59437 23.1535C10.1209 23.5237 10.7762 23.9844 11.9985 23.9844C13.2207 23.9844 13.8761 23.5237 14.4026 23.1535C14.8775 22.8196 15.2206 22.5783 15.9981 22.5783C16.7756 22.5783 17.1187 22.8195 17.5936 23.1535C18.1201 23.5237 18.7755 23.9844 19.9978 23.9844C21.2202 23.9844 21.8755 23.5237 22.402 23.1535C22.877 22.8196 23.2201 22.5783 23.9976 22.5783V21.1722C22.7753 21.1722 22.12 21.633 21.5934 22.0032ZM23.2713 5.1354C22.4981 3.4773 21.1938 2.17419 19.5571 1.40694L19.8886 0.496212L18.5671 0.0151367L18.2355 0.926335C14.415 -0.084847 10.3723 1.97422 8.99493 5.7587L8.71111 6.53855L9.52701 6.69033C10.8427 6.9346 12.1088 7.39543 13.2737 8.05406L13.4379 8.14678L13.6263 8.14495C14.2662 8.13881 14.9041 8.21683 15.5237 8.37698L12.2474 17.3783C12.1646 17.3773 12.0818 17.3758 11.9988 17.3758C9.8264 17.3758 7.69289 17.7315 5.65755 18.4331C4.37805 18.8743 3.14841 19.4486 1.98885 20.1466C2.52439 20.3694 2.91898 20.6464 3.21275 20.853C3.27692 20.8981 3.33129 20.9362 3.38004 20.9696C4.25676 20.4917 5.17186 20.088 6.11579 19.7624C8.00339 19.1118 9.98272 18.7819 11.9988 18.7819C14.0149 18.7819 15.9942 19.1118 17.8818 19.7624C18.8258 20.0879 19.7408 20.4917 20.6176 20.9695C20.6735 20.9311 20.7291 20.8923 20.7846 20.8531C21.0784 20.6465 21.4732 20.3694 22.0088 20.1465C20.8492 19.4485 19.6196 18.8742 18.3401 18.433C16.8444 17.9174 15.2956 17.5895 13.7173 17.4514L16.8452 8.85777C17.4227 9.13343 17.9615 9.48378 18.4478 9.89984L18.591 10.0224L18.7764 10.0569C20.0921 10.3011 21.3582 10.762 22.5231 11.4206L23.2457 11.8288L23.5296 11.0489C24.236 9.10771 24.1443 7.00763 23.2713 5.1354ZM22.4371 9.7895C21.4134 9.29538 20.3313 8.93259 19.2166 8.70974C17.6876 7.45764 15.7783 6.76271 13.8022 6.73908C12.8052 6.19335 11.7433 5.77575 10.6416 5.4962C12.0794 2.71198 15.4056 1.35838 18.4263 2.45778C20.0145 3.03584 21.2825 4.19777 21.9968 5.72959C22.5957 7.014 22.7452 8.42953 22.4371 9.7895Z" fill="#356EFF"/>
<path d="M8.57217 12.7137L10.3115 11.7983L8.57217 10.8829L9.62076 9.22045L7.65675 9.29733L7.73363 7.33332L6.07117 8.38191L5.15575 6.64258L4.24033 8.38191L2.57788 7.33332L2.65475 9.29733L0.690746 9.22045L1.73933 10.8829L0 11.7983L1.73933 12.7137L0.690746 14.3762L2.65475 14.2993L2.57788 16.2633L4.24033 15.2147L5.15575 16.9541L6.07117 15.2147L7.73363 16.2633L7.65675 14.2993L9.62076 14.3762L8.57217 12.7137ZM5.15575 14.3762C3.73203 14.3762 2.57788 13.222 2.57788 11.7983C2.57788 10.3747 3.73203 9.22045 5.15575 9.22045C6.57948 9.22045 7.73363 10.3747 7.73363 11.7983C7.73363 13.222 6.57948 14.3762 5.15575 14.3762Z" fill="#356EFF"/>
</g>
<defs>
<clipPath id="clip0_2359_7054">
<rect width="24" height="24" fill="white"/>
</clipPath>
</defs>
</svg>
