<svg width="24" height="24" viewBox="0 0 24 24" fill="none" xmlns="http://www.w3.org/2000/svg">
<path d="M21.822 0.015C21.797 0.013 21.776 0 21.75 0H11C9.346 0 8 1.346 8 3V4C8 4.26522 8.10536 4.51957 8.29289 4.70711C8.48043 4.89464 8.73478 5 9 5C9.26522 5 9.51957 4.89464 9.70711 4.70711C9.89464 4.51957 10 4.26522 10 4V3C10 2.449 10.449 2 11 2H15.659L15.354 2.102C14.959 2.23838 14.6164 2.49446 14.3737 2.83463C14.131 3.1748 14.0004 3.58214 14 4V19H11C10.449 19 10 18.551 10 18V16C10 15.7348 9.89464 15.4804 9.70711 15.2929C9.51957 15.1054 9.26522 15 9 15C8.73478 15 8.48043 15.1054 8.29289 15.2929C8.10536 15.4804 8 15.7348 8 16V18C8 19.654 9.346 21 11 21H14V22C14 23.103 14.897 24 16 24C16.214 24 16.417 23.969 16.637 23.901L22.645 21.898C23.0402 21.7618 23.383 21.5058 23.6259 21.1656C23.8688 20.8254 23.9995 20.418 24 20V2C24 0.834 22.995 -0.08 21.822 0.015Z" fill="#12AD68"/>
<path d="M10.707 9.29279L6.707 5.29279C6.56715 5.15298 6.38898 5.05777 6.19503 5.0192C6.00108 4.98064 5.80005 5.00044 5.61735 5.07611C5.43465 5.15178 5.27848 5.27992 5.1686 5.44433C5.05871 5.60874 5.00004 5.80204 5 5.99979V8.99979H1C0.734784 8.99979 0.48043 9.10514 0.292893 9.29268C0.105357 9.48022 0 9.73457 0 9.99979C0 10.265 0.105357 10.5194 0.292893 10.7069C0.48043 10.8944 0.734784 10.9998 1 10.9998H5V13.9998C5.00099 14.1971 5.06022 14.3898 5.17026 14.5536C5.2803 14.7173 5.43626 14.845 5.61857 14.9205C5.80088 14.996 6.00142 15.016 6.19506 14.978C6.38869 14.94 6.56678 14.8456 6.707 14.7068L10.707 10.7068C10.7999 10.614 10.8737 10.5038 10.924 10.3825C10.9743 10.2612 11.0002 10.1311 11.0002 9.99979C11.0002 9.86845 10.9743 9.73841 10.924 9.61709C10.8737 9.49578 10.7999 9.38558 10.707 9.29279Z" fill="#12AD68"/>
</svg>
