<svg width="28" height="30" viewBox="0 0 28 30" fill="none" xmlns="http://www.w3.org/2000/svg">
<path d="M22.1667 16.9825V12.5C22.1667 8.47875 19.6175 5.09125 16.1642 4.0725C15.8223 3.15 14.987 2.5 14 2.5C13.013 2.5 12.1777 3.15 11.8358 4.0725C8.3825 5.0925 5.83333 8.47875 5.83333 12.5V16.9825L3.84183 19.1163C3.73328 19.2321 3.6472 19.3699 3.58853 19.5215C3.52987 19.6732 3.49978 19.8358 3.5 20V22.5C3.5 22.8315 3.62292 23.1495 3.84171 23.3839C4.0605 23.6183 4.35725 23.75 4.66667 23.75H23.3333C23.6428 23.75 23.9395 23.6183 24.1583 23.3839C24.3771 23.1495 24.5 22.8315 24.5 22.5V20C24.5002 19.8358 24.4701 19.6732 24.4115 19.5215C24.3528 19.3699 24.2667 19.2321 24.1582 19.1163L22.1667 16.9825ZM22.1667 21.25H5.83333V20.5175L7.82483 18.3837C7.93338 18.2679 8.01947 18.1301 8.07814 17.9785C8.1368 17.8268 8.16689 17.6642 8.16667 17.5V12.5C8.16667 9.05375 10.7835 6.25 14 6.25C17.2165 6.25 19.8333 9.05375 19.8333 12.5V17.5C19.8333 17.8325 19.9558 18.15 20.1752 18.3837L22.1667 20.5175V21.25ZM14 27.5C14.7225 27.501 15.4274 27.2607 16.0166 26.8127C16.6058 26.3647 17.0501 25.7311 17.2877 25H10.7123C10.9499 25.7311 11.3942 26.3647 11.9834 26.8127C12.5726 27.2607 13.2775 27.501 14 27.5Z" fill="white"/>
</svg>
