<svg width="32" height="32" viewBox="0 0 32 32" fill="none" xmlns="http://www.w3.org/2000/svg">
<path d="M16 13.3337C17.5347 13.3337 18.6667 12.203 18.6667 10.667C18.6667 9.13099 17.5347 8.00033 16 8.00033C14.4667 8.00033 13.3333 9.13099 13.3333 10.667C13.3333 12.203 14.4667 13.3337 16 13.3337ZM16 14.667C13.0547 14.667 10.6667 16.8163 10.6667 19.467V19.9817H21.3333V19.467C21.3333 16.8163 18.9453 14.667 16 14.667Z" fill="#484848"/>
<path d="M25.3333 2.66699H6.66667C5.196 2.66699 4 3.86299 4 5.33366V22.667C4 24.1377 5.196 25.3337 6.66667 25.3337H12L16 29.3337L20 25.3337H25.3333C26.804 25.3337 28 24.1377 28 22.667V5.33366C28 3.86299 26.804 2.66699 25.3333 2.66699ZM18.6667 22.667L16 25.3337L13.3333 22.667H6.66667V5.33366H25.3333L25.336 22.667H18.6667Z" fill="#484848"/>
</svg>
