<svg width="75" height="75" viewBox="0 0 75 75" fill="none" xmlns="http://www.w3.org/2000/svg">
<circle cx="37.5" cy="37.5" r="37.5" fill="#37C555"/>
<path d="M50.9335 54.1059C47.2451 54.1059 43.601 53.3024 40.0012 51.6953C36.4012 50.0882 33.122 47.8072 30.1636 44.8523C27.2049 41.8972 24.9222 38.6186 23.3154 35.0165C21.7083 31.4144 20.9048 27.768 20.9048 24.0772C20.9048 23.4536 21.1116 22.9339 21.5252 22.518C21.939 22.1023 22.4563 21.8945 23.077 21.8945H30.154C30.7227 21.8945 31.2094 22.0627 31.6139 22.399C32.0185 22.7353 32.2709 23.1663 32.3712 23.6922L33.4982 29.5972C33.5843 30.1685 33.5714 30.653 33.4597 31.0505C33.3477 31.4481 33.1332 31.7949 32.8162 32.0909L28.5094 36.2948C29.065 37.2973 29.7229 38.2738 30.483 39.2243C31.2433 40.1749 32.0908 41.1028 33.0253 42.0082C33.8947 42.8773 34.7905 43.674 35.7124 44.3982C36.6341 45.1224 37.6004 45.7774 38.6113 46.363L42.7969 42.209C43.1361 41.8765 43.552 41.6377 44.0446 41.4928C44.5372 41.3475 45.0401 41.3179 45.5531 41.404L51.308 42.5979C51.863 42.7563 52.3014 43.0252 52.6231 43.4047C52.9448 43.7841 53.1057 44.2368 53.1057 44.7627V51.9232C53.1057 52.5468 52.8976 53.0666 52.4813 53.4825C52.0651 53.8981 51.5492 54.1059 50.9335 54.1059ZM26.6063 32.5827L29.4837 29.7897L28.7605 25.8758H24.9403C25.0721 27.0229 25.2639 28.1552 25.5156 29.2725C25.7673 30.3899 26.1309 31.4933 26.6063 32.5827ZM42.3108 48.2977C43.4066 48.7725 44.5259 49.1522 45.6686 49.4369C46.8116 49.7216 47.9636 49.9147 49.1244 50.0162V46.2187L45.221 45.4084L42.3108 48.2977Z" fill="white"/>
</svg>
