<svg width="30" height="30" viewBox="0 0 30 30" fill="none" xmlns="http://www.w3.org/2000/svg">
<path d="M10.0728 20.9616C10.3864 20.9616 10.649 20.8555 10.8606 20.6434C11.0721 20.4314 11.1778 20.1685 11.1778 19.855C11.1778 19.5415 11.0718 19.2789 10.8597 19.0672C10.6476 18.8557 10.3848 18.75 10.0712 18.75C9.75771 18.75 9.49521 18.856 9.28375 19.0681C9.07208 19.2802 8.96625 19.543 8.96625 19.8566C8.96625 20.1701 9.07229 20.4326 9.28438 20.6441C9.49667 20.8557 9.75948 20.9616 10.0728 20.9616ZM10.0728 16.1056C10.3864 16.1056 10.649 15.9996 10.8606 15.7875C11.0721 15.5754 11.1778 15.3126 11.1778 14.9991C11.1778 14.6855 11.0718 14.423 10.8597 14.2116C10.6476 14.0001 10.3848 13.8944 10.0712 13.8944C9.75771 13.8944 9.49521 14.0004 9.28375 14.2125C9.07208 14.4246 8.96625 14.6874 8.96625 15.0009C8.96625 15.3145 9.07229 15.577 9.28438 15.7884C9.49667 15.9999 9.75948 16.1056 10.0728 16.1056ZM10.0728 11.25C10.3864 11.25 10.649 11.144 10.8606 10.9319C11.0721 10.7198 11.1778 10.457 11.1778 10.1434C11.1778 9.8299 11.0718 9.5674 10.8597 9.35594C10.6476 9.14427 10.3848 9.03844 10.0712 9.03844C9.75771 9.03844 9.49521 9.14448 9.28375 9.35656C9.07208 9.56865 8.96625 9.83146 8.96625 10.145C8.96625 10.4585 9.07229 10.7211 9.28438 10.9328C9.49667 11.1443 9.75948 11.25 10.0728 11.25ZM13.8703 20.7931H20.9856V18.9184H13.8703V20.7931ZM13.8703 15.9375H20.9856V14.0625H13.8703V15.9375ZM13.8703 11.0816H20.9856V9.20687H13.8703V11.0816ZM6.63469 25.625C6.00323 25.625 5.46875 25.4062 5.03125 24.9688C4.59375 24.5312 4.375 23.9968 4.375 23.3653V6.63469C4.375 6.00323 4.59375 5.46875 5.03125 5.03125C5.46875 4.59375 6.00323 4.375 6.63469 4.375H23.3653C23.9968 4.375 24.5312 4.59375 24.9688 5.03125C25.4062 5.46875 25.625 6.00323 25.625 6.63469V23.3653C25.625 23.9968 25.4062 24.5312 24.9688 24.9688C24.5312 25.4062 23.9968 25.625 23.3653 25.625H6.63469ZM6.63469 23.75H23.3653C23.4616 23.75 23.5497 23.7099 23.6297 23.6297C23.7099 23.5497 23.75 23.4616 23.75 23.3653V6.63469C23.75 6.53844 23.7099 6.45031 23.6297 6.37031C23.5497 6.2901 23.4616 6.25 23.3653 6.25H6.63469C6.53844 6.25 6.45031 6.2901 6.37031 6.37031C6.2901 6.45031 6.25 6.53844 6.25 6.63469V23.3653C6.25 23.4616 6.2901 23.5497 6.37031 23.6297C6.45031 23.7099 6.53844 23.75 6.63469 23.75Z" fill="black"/>
</svg>
