<svg width="38" height="38" viewBox="0 0 38 38" fill="none" xmlns="http://www.w3.org/2000/svg">
<rect x="0.25" y="0.25" width="37.5" height="37.5" rx="4.75" fill="#FCD7D7" fill-opacity="0.5" stroke="#FF6B6B" stroke-width="0.5"/>
<path d="M17.0901 19.5C16.6585 18.8155 16.3221 18.0753 16.0901 17.3L17.6801 15.71C17.7738 15.6171 17.8482 15.5065 17.899 15.3846C17.9498 15.2628 17.9759 15.1321 17.9759 15C17.9759 14.868 17.9498 14.7373 17.899 14.6155C17.8482 14.4936 17.7738 14.383 17.6801 14.29L13.6801 10.29C13.4928 10.1038 13.2393 9.99925 12.9751 9.99925C12.7109 9.99925 12.4575 10.1038 12.2701 10.29L9.59012 13C9.40054 13.1885 9.25065 13.413 9.14932 13.6603C9.04798 13.9076 8.99725 14.1728 9.00012 14.44C9.08627 17.9453 10.3629 21.3169 12.6201 24L9.30012 27.29L10.7101 28.71L28.7101 10.71L27.3001 9.29004L17.0901 19.5ZM14.0001 22.55C12.1246 20.2486 11.069 17.3881 11.0001 14.42L13.0001 12.42L15.5901 15L14.3001 16.29C14.1816 16.4085 14.0948 16.5548 14.0477 16.7156C14.0005 16.8763 13.9945 17.0463 14.0301 17.21C14.3336 18.5433 14.883 19.8082 15.6501 20.94L14.0001 22.55ZM23.7101 20.29C23.5228 20.1038 23.2693 19.9992 23.0051 19.9992C22.7409 19.9992 22.4875 20.1038 22.3001 20.29L20.7001 21.89L20.3601 21.77L18.8001 23.32C19.4463 23.5979 20.1155 23.8188 20.8001 23.98C20.9623 24.0139 21.1304 24.007 21.2892 23.9599C21.448 23.9128 21.5927 23.8269 21.7101 23.71L23.0101 22.41L25.5901 25L23.5901 27C21.2673 26.9396 18.9986 26.2855 17.0001 25.1L15.5701 26.55C17.9646 28.0785 20.7304 28.9255 23.5701 29C23.835 29.0029 24.0978 28.9531 24.3433 28.8535C24.5888 28.7539 24.812 28.6066 25.0001 28.42L27.7101 25.71C27.8038 25.6171 27.8782 25.5065 27.929 25.3846C27.9798 25.2628 28.0059 25.1321 28.0059 25C28.0059 24.868 27.9798 24.7373 27.929 24.6155C27.8782 24.4936 27.8038 24.383 27.7101 24.29L23.7101 20.29Z" fill="#F90000"/>
</svg>
