<svg width="38" height="38" viewBox="0 0 38 38" fill="none" xmlns="http://www.w3.org/2000/svg">
<rect x="0.25" y="0.25" width="37.5" height="37.5" rx="4.75" fill="#DDEFFF" stroke="#0048FF" stroke-width="0.5"/>
<path d="M24.7073 19.2932C24.6145 19.2003 24.5043 19.1265 24.383 19.0762C24.2617 19.0259 24.1317 19 24.0003 19C23.869 19 23.739 19.0259 23.6176 19.0762C23.4963 19.1265 23.3861 19.2003 23.2933 19.2932L21.6993 20.8872C20.9603 20.6672 19.5813 20.1672 18.7073 19.2932C17.8333 18.4192 17.3333 17.0402 17.1133 16.3012L18.7073 14.7072C18.8003 14.6144 18.874 14.5042 18.9243 14.3829C18.9746 14.2616 19.0005 14.1315 19.0005 14.0002C19.0005 13.8689 18.9746 13.7388 18.9243 13.6175C18.874 13.4962 18.8003 13.386 18.7073 13.2932L14.7073 9.2932C14.6145 9.20026 14.5043 9.12652 14.383 9.07621C14.2617 9.0259 14.1317 9 14.0003 9C13.869 9 13.739 9.0259 13.6176 9.07621C13.4963 9.12652 13.3861 9.20026 13.2933 9.2932L10.5813 12.0052C10.2013 12.3852 9.98733 12.9072 9.99533 13.4402C10.0183 14.8642 10.3953 19.8102 14.2933 23.7082C18.1913 27.6062 23.1373 27.9822 24.5623 28.0062H24.5903C25.1183 28.0062 25.6173 27.7982 25.9953 27.4202L28.7073 24.7082C28.8003 24.6154 28.874 24.5052 28.9243 24.3839C28.9746 24.2626 29.0005 24.1325 29.0005 24.0012C29.0005 23.8699 28.9746 23.7398 28.9243 23.6185C28.874 23.4972 28.8003 23.387 28.7073 23.2942L24.7073 19.2932ZM24.5803 26.0052C23.3323 25.9842 19.0623 25.6492 15.7073 22.2932C12.3413 18.9272 12.0153 14.6422 11.9953 13.4192L14.0003 11.4142L16.5863 14.0002L15.2933 15.2932C15.1758 15.4107 15.0894 15.5555 15.0419 15.7148C14.9944 15.874 14.9873 16.0426 15.0213 16.2052C15.0453 16.3202 15.6323 19.0472 17.2923 20.7072C18.9523 22.3672 21.6793 22.9542 21.7943 22.9782C21.9569 23.0132 22.1256 23.0067 22.285 22.9593C22.4444 22.9119 22.5893 22.8252 22.7063 22.7072L24.0003 21.4142L26.5863 24.0002L24.5803 26.0052Z" fill="#356EFF"/>
</svg>
