<svg width="20" height="20" viewBox="0 0 20 20" fill="none" xmlns="http://www.w3.org/2000/svg">
<path d="M4.42308 17.9167C4.00211 17.9167 3.64579 17.7708 3.35413 17.4792C3.06246 17.1875 2.91663 16.8312 2.91663 16.4102V5.25647C2.91663 4.8355 3.06246 4.47918 3.35413 4.18751C3.64579 3.89585 4.00211 3.75001 4.42308 3.75001H5.57683V1.9873H6.85892V3.75001H13.1731V1.9873H14.4231V3.75001H15.5768C15.9978 3.75001 16.3541 3.89585 16.6458 4.18751C16.9375 4.47918 17.0833 4.8355 17.0833 5.25647V16.4102C17.0833 16.8312 16.9375 17.1875 16.6458 17.4792C16.3541 17.7708 15.9978 17.9167 15.5768 17.9167H4.42308ZM4.42308 16.6667H15.5768C15.641 16.6667 15.6998 16.6399 15.7531 16.5865C15.8066 16.5331 15.8333 16.4744 15.8333 16.4102V8.5898H4.16663V16.4102C4.16663 16.4744 4.19336 16.5331 4.24683 16.5865C4.30017 16.6399 4.35892 16.6667 4.42308 16.6667ZM4.16663 7.3398H15.8333V5.25647C15.8333 5.1923 15.8066 5.13355 15.7531 5.08022C15.6998 5.02675 15.641 5.00001 15.5768 5.00001H4.42308C4.35892 5.00001 4.30017 5.02675 4.24683 5.08022C4.19336 5.13355 4.16663 5.1923 4.16663 5.25647V7.3398ZM9.99996 11.7308C9.79593 11.7308 9.62204 11.659 9.47829 11.5152C9.33468 11.3716 9.26288 11.1977 9.26288 10.9936C9.26288 10.7895 9.33468 10.6156 9.47829 10.4719C9.62204 10.3283 9.79593 10.2565 9.99996 10.2565C10.204 10.2565 10.3779 10.3283 10.5216 10.4719C10.6652 10.6156 10.737 10.7895 10.737 10.9936C10.737 11.1977 10.6652 11.3716 10.5216 11.5152C10.3779 11.659 10.204 11.7308 9.99996 11.7308ZM6.66663 11.7308C6.4626 11.7308 6.28871 11.659 6.14496 11.5152C6.00135 11.3716 5.92954 11.1977 5.92954 10.9936C5.92954 10.7895 6.00135 10.6156 6.14496 10.4719C6.28871 10.3283 6.4626 10.2565 6.66663 10.2565C6.87065 10.2565 7.04454 10.3283 7.18829 10.4719C7.3319 10.6156 7.40371 10.7895 7.40371 10.9936C7.40371 11.1977 7.3319 11.3716 7.18829 11.5152C7.04454 11.659 6.87065 11.7308 6.66663 11.7308ZM13.3333 11.7308C13.1293 11.7308 12.9554 11.659 12.8116 11.5152C12.668 11.3716 12.5962 11.1977 12.5962 10.9936C12.5962 10.7895 12.668 10.6156 12.8116 10.4719C12.9554 10.3283 13.1293 10.2565 13.3333 10.2565C13.5373 10.2565 13.7112 10.3283 13.855 10.4719C13.9986 10.6156 14.0704 10.7895 14.0704 10.9936C14.0704 11.1977 13.9986 11.3716 13.855 11.5152C13.7112 11.659 13.5373 11.7308 13.3333 11.7308ZM9.99996 15C9.79593 15 9.62204 14.9281 9.47829 14.7844C9.33468 14.6408 9.26288 14.467 9.26288 14.2629C9.26288 14.0588 9.33468 13.8849 9.47829 13.7413C9.62204 13.5975 9.79593 13.5256 9.99996 13.5256C10.204 13.5256 10.3779 13.5975 10.5216 13.7413C10.6652 13.8849 10.737 14.0588 10.737 14.2629C10.737 14.467 10.6652 14.6408 10.5216 14.7844C10.3779 14.9281 10.204 15 9.99996 15ZM6.66663 15C6.4626 15 6.28871 14.9281 6.14496 14.7844C6.00135 14.6408 5.92954 14.467 5.92954 14.2629C5.92954 14.0588 6.00135 13.8849 6.14496 13.7413C6.28871 13.5975 6.4626 13.5256 6.66663 13.5256C6.87065 13.5256 7.04454 13.5975 7.18829 13.7413C7.3319 13.8849 7.40371 14.0588 7.40371 14.2629C7.40371 14.467 7.3319 14.6408 7.18829 14.7844C7.04454 14.9281 6.87065 15 6.66663 15ZM13.3333 15C13.1293 15 12.9554 14.9281 12.8116 14.7844C12.668 14.6408 12.5962 14.467 12.5962 14.2629C12.5962 14.0588 12.668 13.8849 12.8116 13.7413C12.9554 13.5975 13.1293 13.5256 13.3333 13.5256C13.5373 13.5256 13.7112 13.5975 13.855 13.7413C13.9986 13.8849 14.0704 14.0588 14.0704 14.2629C14.0704 14.467 13.9986 14.6408 13.855 14.7844C13.7112 14.9281 13.5373 15 13.3333 15Z" fill="#545454"/>
</svg>
