<svg width="32" height="32" viewBox="0 0 32 32" fill="none" xmlns="http://www.w3.org/2000/svg">
<path d="M9.33333 22.6845L15.2173 22.6645L28.06 9.94452C28.564 9.44052 28.8413 8.77119 28.8413 8.05919C28.8413 7.34719 28.564 6.67785 28.06 6.17385L25.9453 4.05919C24.9373 3.05119 23.1787 3.05652 22.1787 4.05519L9.33333 16.7779V22.6845ZM24.06 5.94452L26.1787 8.05519L24.0493 10.1645L21.9347 8.05119L24.06 5.94452ZM12 17.8899L20.04 9.92585L22.1547 12.0405L14.116 20.0019L12 20.0085V17.8899Z" fill="#484848"/>
<path d="M6.66667 28.0005H25.3333C26.804 28.0005 28 26.8045 28 25.3338V13.7765L25.3333 16.4432V25.3338H10.8773C10.8427 25.3338 10.8067 25.3472 10.772 25.3472C10.728 25.3472 10.684 25.3352 10.6387 25.3338H6.66667V6.66716H15.796L18.4627 4.00049H6.66667C5.196 4.00049 4 5.19649 4 6.66716V25.3338C4 26.8045 5.196 28.0005 6.66667 28.0005Z" fill="#484848"/>
</svg>
