<svg width="18" height="18" viewBox="0 0 18 18" fill="none" xmlns="http://www.w3.org/2000/svg">
<path d="M1.66663 17.2496C1.7397 17.2584 1.81356 17.2584 1.88663 17.2496L5.55329 16.3329C5.71595 16.2943 5.86494 16.2119 5.98413 16.0946L17.25 4.79211C17.5914 4.44861 17.7831 3.98395 17.7831 3.49961C17.7831 3.01527 17.5914 2.5506 17.25 2.20711L15.8016 0.749606C15.6314 0.579149 15.4292 0.443925 15.2066 0.351663C14.984 0.259402 14.7455 0.211914 14.5045 0.211914C14.2636 0.211914 14.0251 0.259402 13.8025 0.351663C13.5799 0.443925 13.3777 0.579149 13.2075 0.749606L1.94163 12.0154C1.82318 12.1352 1.7379 12.2836 1.69413 12.4463L0.777461 16.1129C0.744514 16.2315 0.735794 16.3556 0.751821 16.4776C0.767847 16.5997 0.808292 16.7172 0.870743 16.8233C0.933194 16.9294 1.01637 17.0218 1.11531 17.0951C1.21425 17.1683 1.32693 17.2209 1.44663 17.2496C1.5197 17.2584 1.59356 17.2584 1.66663 17.2496ZM14.5 2.04211L15.9575 3.49961L14.5 4.95711L13.0516 3.49961L14.5 2.04211ZM3.41746 13.1338L11.75 4.79211L13.2075 6.24961L4.86579 14.5913L2.93163 15.0679L3.41746 13.1338Z" fill="#356EFF"/>
</svg>
