<svg width="22" height="22" viewBox="0 0 22 22" fill="none" xmlns="http://www.w3.org/2000/svg">
<path d="M19.2501 2.75H4.58341C4.3403 2.75 4.10714 2.84658 3.93523 3.01849C3.76333 3.19039 3.66675 3.42355 3.66675 3.66667V6.04083C3.66675 6.52025 3.862 6.99142 4.20116 7.33058L9.16675 12.2962V19.25C9.16693 19.4062 9.20697 19.5597 9.28307 19.6961C9.35918 19.8325 9.46883 19.9472 9.60165 20.0293C9.73448 20.1115 9.88607 20.1584 10.0421 20.1656C10.1981 20.1727 10.3533 20.14 10.4932 20.0704L14.1598 18.2371C14.4706 18.0813 14.6667 17.7641 14.6667 17.4167V12.2962L19.6323 7.33058C19.9715 6.99142 20.1667 6.52025 20.1667 6.04083V3.66667C20.1667 3.42355 20.0702 3.19039 19.8983 3.01849C19.7264 2.84658 19.4932 2.75 19.2501 2.75ZM13.102 11.2686C13.0167 11.3536 12.9491 11.4546 12.903 11.5658C12.8569 11.677 12.8332 11.7963 12.8334 11.9167V16.8502L11.0001 17.7668V11.9167C11.0003 11.7963 10.9766 11.677 10.9305 11.5658C10.8844 11.4546 10.8168 11.3536 10.7315 11.2686L5.50008 6.04083V4.58333H18.3343L18.3362 6.03442L13.102 11.2686Z" fill="white"/>
</svg>
