<svg width="18" height="18" viewBox="0 0 18 18" fill="none" xmlns="http://www.w3.org/2000/svg">
<path d="M13.2803 9.2199C13.2107 9.15019 13.128 9.09489 13.037 9.05716C12.946 9.01942 12.8485 9 12.75 9C12.6515 9 12.554 9.01942 12.463 9.05716C12.372 9.09489 12.2893 9.15019 12.2198 9.2199L11.0243 10.4154C10.47 10.2504 9.43576 9.8754 8.78026 9.2199C8.12476 8.5644 7.74976 7.53015 7.58476 6.9759L8.78026 5.7804C8.84997 5.71081 8.90527 5.62816 8.943 5.53717C8.98073 5.44618 9.00016 5.34865 9.00016 5.25015C9.00016 5.15165 8.98073 5.05412 8.943 4.96313C8.90527 4.87214 8.84997 4.78949 8.78026 4.7199L5.78026 1.7199C5.71067 1.65019 5.62801 1.59489 5.53703 1.55716C5.44604 1.51942 5.34851 1.5 5.25001 1.5C5.15151 1.5 5.05397 1.51942 4.96299 1.55716C4.872 1.59489 4.78935 1.65019 4.71976 1.7199L2.68576 3.7539C2.40076 4.0389 2.24026 4.4304 2.24626 4.83015C2.26351 5.89815 2.54626 9.60765 5.46976 12.5312C8.39326 15.4547 12.1028 15.7367 13.1715 15.7547H13.1925C13.5885 15.7547 13.9628 15.5986 14.2463 15.3152L16.2803 13.2812C16.35 13.2116 16.4053 13.1289 16.443 13.0379C16.4807 12.9469 16.5002 12.8494 16.5002 12.7509C16.5002 12.6524 16.4807 12.5549 16.443 12.4639C16.4053 12.3729 16.35 12.2902 16.2803 12.2207L13.2803 9.2199ZM13.185 14.2539C12.249 14.2381 9.04651 13.9869 6.53026 11.4699C4.00576 8.9454 3.76126 5.73165 3.74626 4.8144L5.25001 3.31065L7.18951 5.25015L6.21976 6.2199C6.1316 6.30799 6.06679 6.41665 6.03117 6.53608C5.99555 6.6555 5.99026 6.78192 6.01576 6.9039C6.03376 6.99015 6.47401 9.0354 7.71901 10.2804C8.96401 11.5254 11.0093 11.9657 11.0955 11.9837C11.2174 12.0099 11.344 12.005 11.4635 11.9695C11.583 11.934 11.6917 11.8689 11.7795 11.7804L12.75 10.8107L14.6895 12.7502L13.185 14.2539Z" fill="#545454"/>
</svg>
