<svg width="34" height="34" viewBox="0 0 34 34" fill="none" xmlns="http://www.w3.org/2000/svg">
<path d="M6.5522 31.1663C6.15081 31.1663 5.80254 31.0188 5.50741 30.7236C5.21227 30.4285 5.0647 30.0802 5.0647 29.6788V25.9601C5.0647 23.8351 5.72581 21.958 7.04803 20.3288C8.37025 18.6997 10.0703 17.6608 12.148 17.2122C11.2036 17.8733 10.4716 18.7056 9.9522 19.709C9.43275 20.7125 9.17303 21.7927 9.17303 22.9497V29.6788C9.17303 29.9386 9.20845 30.1983 9.27928 30.458C9.35011 30.7177 9.46817 30.9538 9.63345 31.1663H6.5522ZM11.7584 31.1663C11.3571 31.1663 11.0088 31.0188 10.7137 30.7236C10.4185 30.4285 10.2709 30.0802 10.2709 29.6788V22.9497C10.2709 21.2969 10.8553 19.892 12.0241 18.7351C13.1928 17.5781 14.6036 16.9997 16.2564 16.9997H22.9501C24.6029 16.9997 26.0078 17.5781 27.1647 18.7351C28.3216 19.892 28.9001 21.2969 28.9001 22.9497V25.2163C28.9001 26.8691 28.3216 28.274 27.1647 29.4309C26.0078 30.5879 24.6029 31.1663 22.9501 31.1663H11.7584ZM17.0001 14.0247C15.4418 14.0247 14.1196 13.4816 13.0334 12.3955C11.9473 11.3094 11.4043 9.98717 11.4043 8.42884C11.4043 6.87051 11.9473 5.54829 13.0334 4.46217C14.1196 3.37606 15.4418 2.83301 17.0001 2.83301C18.5584 2.83301 19.8807 3.37606 20.9668 4.46217C22.0529 5.54829 22.5959 6.87051 22.5959 8.42884C22.5959 9.98717 22.0529 11.3094 20.9668 12.3955C19.8807 13.4816 18.5584 14.0247 17.0001 14.0247Z" fill="#356EFF"/>
</svg>
