<svg width="22" height="22" viewBox="0 0 22 22" fill="none" xmlns="http://www.w3.org/2000/svg">
<path d="M3.66663 19.2496C3.7397 19.2584 3.81356 19.2584 3.88663 19.2496L7.55329 18.3329C7.71595 18.2943 7.86494 18.2119 7.98413 18.0946L19.25 6.79211C19.5914 6.44861 19.7831 5.98395 19.7831 5.49961C19.7831 5.01527 19.5914 4.5506 19.25 4.20711L17.8016 2.74961C17.6314 2.57915 17.4292 2.44392 17.2066 2.35166C16.984 2.2594 16.7455 2.21191 16.5045 2.21191C16.2636 2.21191 16.0251 2.2594 15.8025 2.35166C15.5799 2.44392 15.3777 2.57915 15.2075 2.74961L3.94163 14.0154C3.82318 14.1352 3.7379 14.2836 3.69413 14.4463L2.77746 18.1129C2.74451 18.2315 2.73579 18.3556 2.75182 18.4776C2.76785 18.5997 2.80829 18.7172 2.87074 18.8233C2.93319 18.9294 3.01637 19.0218 3.11531 19.0951C3.21425 19.1683 3.32693 19.2209 3.44663 19.2496C3.5197 19.2584 3.59356 19.2584 3.66663 19.2496ZM16.5 4.04211L17.9575 5.49961L16.5 6.95711L15.0516 5.49961L16.5 4.04211ZM5.41746 15.1338L13.75 6.79211L15.2075 8.24961L6.86579 16.5913L4.93163 17.0679L5.41746 15.1338Z" fill="#356EFF"/>
</svg>
