<svg width="28" height="32" viewBox="0 0 28 32" fill="none" xmlns="http://www.w3.org/2000/svg">
<path d="M24.8011 6.29309C24.5567 6.29393 24.321 6.20246 24.1412 6.03698C21.2574 3.40797 17.5569 1.96018 13.7206 1.96018C9.88419 1.96018 6.18371 3.40797 3.2999 6.03829C3.1049 6.1936 2.85817 6.269 2.60967 6.24921C2.36117 6.22941 2.12948 6.11591 1.96154 5.93168C1.79359 5.74746 1.70194 5.50629 1.70516 5.25702C1.70838 5.00775 1.80621 4.76902 1.97886 4.58919C5.22592 1.6296 9.39549 0.000183105 13.7206 0.000183105C18.0456 0.000183105 22.2152 1.6296 25.4623 4.58919C25.6083 4.72245 25.7106 4.89676 25.7558 5.08922C25.8009 5.28168 25.7868 5.48331 25.7153 5.66761C25.6438 5.85191 25.5182 6.01027 25.355 6.1219C25.1919 6.23353 24.9988 6.2932 24.8011 6.29309Z" fill="white"/>
<path d="M26.4603 12.6972C26.2994 12.6976 26.1408 12.6582 25.9988 12.5826C25.8568 12.5069 25.7357 12.3972 25.6462 12.2634C22.9258 8.21275 18.4674 5.79411 13.7203 5.79411C8.97318 5.79411 4.51484 8.21275 1.79436 12.2634C1.72263 12.3703 1.63055 12.462 1.52338 12.5334C1.4162 12.6047 1.29603 12.6542 1.16972 12.6791C1.04341 12.7039 0.913435 12.7037 0.787221 12.6783C0.661007 12.653 0.541024 12.603 0.434121 12.5313C0.327218 12.4596 0.235489 12.3675 0.164172 12.2603C0.092855 12.1531 0.0433462 12.0329 0.0184725 11.9066C-0.00640121 11.7803 -0.00615273 11.6504 0.0192037 11.5241C0.0445601 11.3979 0.0945278 11.2779 0.166254 11.171C3.25129 6.57811 8.31854 3.83542 13.7203 3.83542C19.1221 3.83542 24.1893 6.57811 27.2743 11.1723C27.373 11.3199 27.4298 11.4914 27.4386 11.6686C27.4474 11.8459 27.4079 12.0222 27.3243 12.1788C27.2407 12.3353 27.1162 12.4662 26.964 12.5575C26.8119 12.6489 26.6378 12.6971 26.4603 12.6972Z" fill="white"/>
<path d="M10.6256 31.3603C10.4961 31.3605 10.3679 31.3349 10.2483 31.2851C10.1288 31.2353 10.0203 31.1623 9.92917 31.0703C9.71488 30.8547 4.69336 25.7286 4.69336 20.7933C4.69336 15.6712 8.74272 11.5042 13.7211 11.5042C18.6995 11.5042 22.7489 15.6712 22.7489 20.7933C22.7489 21.0532 22.6456 21.3025 22.4618 21.4863C22.2781 21.6701 22.0288 21.7733 21.7689 21.7733C21.509 21.7733 21.2597 21.6701 21.0759 21.4863C20.8921 21.3025 20.7889 21.0532 20.7889 20.7933C20.7889 16.7518 17.6189 13.4642 13.7211 13.4642C9.82333 13.4642 6.65336 16.7518 6.65336 20.7933C6.65336 24.9315 11.275 29.6434 11.3221 29.6904C11.4583 29.8278 11.5508 30.0025 11.5879 30.1924C11.625 30.3823 11.6051 30.579 11.5306 30.7576C11.4561 30.9362 11.3304 31.0887 11.1694 31.196C11.0083 31.3032 10.8191 31.3604 10.6256 31.3603Z" fill="white"/>
<path d="M16.8156 31.3607C14.4584 31.3607 8.99394 26.8762 8.46474 21.8822C8.27789 20.1169 8.83975 18.311 9.9661 17.0514C10.9461 15.9564 12.2698 15.3488 13.6927 15.341H13.7202C15.1078 15.341 16.4197 15.8859 17.418 16.8776C17.9341 17.3906 18.3428 18.0011 18.6203 18.6737C18.8978 19.3463 19.0386 20.0674 19.0344 20.795V21.434C19.0344 23.0085 20.26 24.289 21.7679 24.289C23.2758 24.289 24.5028 23.0085 24.5028 21.434V21.2105C24.5028 15.1084 20.0823 10.032 14.4388 9.65569C11.4962 9.45577 8.67381 10.4724 6.4956 12.5081C4.23506 14.6223 2.93885 17.6433 2.93885 20.795C2.93522 23.377 3.80668 25.8841 5.41106 27.9072C5.49137 28.0078 5.55106 28.1233 5.58674 28.247C5.62242 28.3707 5.63339 28.5003 5.61901 28.6282C5.60463 28.7562 5.56519 28.88 5.50295 28.9927C5.4407 29.1054 5.35686 29.2048 5.25622 29.2851C5.15558 29.3654 5.04011 29.4251 4.9164 29.4608C4.79269 29.4964 4.66316 29.5074 4.53521 29.493C4.40727 29.4786 4.2834 29.4392 4.1707 29.377C4.05799 29.3147 3.95865 29.2309 3.87834 29.1302C1.99737 26.7589 0.974908 23.8205 0.977544 20.7937C0.977544 17.1011 2.50112 13.5587 5.15496 11.076C7.73301 8.66393 11.0755 7.46441 14.5669 7.6983C21.2361 8.14387 26.4615 14.0788 26.4615 21.2092V21.4327C26.4615 24.0878 24.3551 26.2477 21.7666 26.2477C19.1781 26.2477 17.0731 24.0878 17.0731 21.4327V20.7937C17.0731 19.8294 16.7046 18.933 16.0356 18.2666C15.7325 17.9607 15.3719 17.7177 14.9745 17.5518C14.5771 17.3858 14.1508 17.3001 13.7202 17.2997H13.7019C12.5977 17.3049 11.8542 17.8785 11.4256 18.3581C10.6612 19.2113 10.2823 20.4527 10.4117 21.6757C10.8442 25.7499 15.526 29.402 16.8143 29.402C17.0679 29.4111 17.308 29.5182 17.4843 29.7007C17.6605 29.8833 17.759 30.127 17.7592 30.3807C17.7594 30.6345 17.6611 30.8784 17.4852 31.0611C17.3092 31.2439 17.0692 31.3513 16.8156 31.3607Z" fill="white"/>
<path d="M20.4521 29.4438C16.945 29.4438 12.6631 25.1579 12.6631 20.1547C12.6631 19.8948 12.7663 19.6455 12.9501 19.4617C13.1339 19.2779 13.3832 19.1747 13.6431 19.1747C13.903 19.1747 14.1523 19.2779 14.336 19.4617C14.5198 19.6455 14.6231 19.8948 14.6231 20.1547C14.6231 24.0329 17.8832 27.4838 20.4521 27.4838C20.712 27.4838 20.9613 27.587 21.1451 27.7708C21.3289 27.9546 21.4321 28.2039 21.4321 28.4638C21.4321 28.7237 21.3289 28.9729 21.1451 29.1567C20.9613 29.3405 20.712 29.4438 20.4521 29.4438Z" fill="white"/>
</svg>
