<svg width="24" height="24" viewBox="0 0 24 24" fill="none" xmlns="http://www.w3.org/2000/svg">
<path d="M13.1666 6.16634H10.8333V10.833H6.16658V13.1663H10.8333V17.833H13.1666V13.1663H17.8333V10.833H13.1666V6.16634Z" fill="white"/>
<path d="M11.9999 0.333008C5.56692 0.333008 0.333252 5.56667 0.333252 11.9997C0.333252 18.4327 5.56692 23.6663 11.9999 23.6663C18.4329 23.6663 23.6666 18.4327 23.6666 11.9997C23.6666 5.56667 18.4329 0.333008 11.9999 0.333008ZM11.9999 21.333C6.85375 21.333 2.66659 17.1458 2.66659 11.9997C2.66659 6.85351 6.85375 2.66634 11.9999 2.66634C17.1461 2.66634 21.3333 6.85351 21.3333 11.9997C21.3333 17.1458 17.1461 21.333 11.9999 21.333Z" fill="white"/>
</svg>
