<svg width="24" height="24" viewBox="0 0 24 24" fill="none" xmlns="http://www.w3.org/2000/svg">
<path d="M22.0001 7.99851C21.9999 7.82003 21.9519 7.64486 21.8612 7.49118C21.7705 7.33749 21.6402 7.21089 21.4841 7.12451L12.4621 2.12451C12.3138 2.04283 12.1473 2 11.9781 2C11.8088 2 11.6423 2.04283 11.4941 2.12451L2.51607 7.08451C2.3601 7.17087 2.23006 7.29736 2.13941 7.45087C2.04876 7.60439 2.0008 7.77934 2.00049 7.95762C2.00018 8.1359 2.04754 8.31102 2.13767 8.46485C2.22779 8.61867 2.3574 8.74561 2.51307 8.83251L11.5351 13.8725C11.6836 13.956 11.8511 13.9999 12.0214 14.0001C12.1918 14.0002 12.3594 13.9567 12.5081 13.8735L21.4861 8.8735C21.642 8.78678 21.7719 8.65991 21.8623 8.50605C21.9527 8.35219 22.0002 8.17695 22.0001 7.99851ZM12.0231 11.8535L5.06007 7.96451L11.9771 4.14251L18.9411 8.0015L12.0231 11.8535Z" fill="#356EFF"/>
<path d="M20.515 11.1255L12 15.8555L3.48504 11.1255L2.51404 12.8735L11.514 17.8735C11.6626 17.956 11.8296 17.9993 11.9995 17.9993C12.1694 17.9993 12.3365 17.956 12.485 17.8735L21.485 12.8735L20.515 11.1255Z" fill="#356EFF"/>
<path d="M20.515 15.1255L12 19.8555L3.48504 15.1255L2.51404 16.8735L11.514 21.8735C11.6626 21.956 11.8296 21.9993 11.9995 21.9993C12.1694 21.9993 12.3365 21.956 12.485 21.8735L21.485 16.8735L20.515 15.1255Z" fill="#356EFF"/>
</svg>
