<svg width="16" height="20" viewBox="0 0 16 20" fill="none" xmlns="http://www.w3.org/2000/svg">
<path d="M7.99978 9.28544C6.99978 9.28544 6.14372 8.93573 5.4316 8.23633C4.71948 7.53692 4.36341 6.69615 4.36341 5.71401C4.36341 4.73186 4.71948 3.89109 5.4316 3.19169C6.14372 2.49228 6.99978 2.14258 7.99978 2.14258C8.99978 2.14258 9.85584 2.49228 10.568 3.19169C11.2801 3.89109 11.6361 4.73186 11.6361 5.71401C11.6361 6.69615 11.2801 7.53692 10.568 8.23633C9.85584 8.93573 8.99978 9.28544 7.99978 9.28544ZM0.727051 16.4283V13.9283C0.727051 13.4223 0.859627 12.9573 1.12478 12.5332C1.38993 12.1091 1.7422 11.7854 2.1816 11.5622C3.12099 11.1009 4.07554 10.7549 5.04523 10.5243C6.01493 10.2936 6.99978 10.1783 7.99978 10.1783C8.99978 10.1783 9.98463 10.2936 10.9543 10.5243C11.924 10.7549 12.8786 11.1009 13.818 11.5622C14.2574 11.7854 14.6096 12.1091 14.8748 12.5332C15.1399 12.9573 15.2725 13.4223 15.2725 13.9283V16.4283H0.727051Z" fill="#484848"/>
</svg>
