<svg width="20" height="20" viewBox="0 0 20 20" fill="none" xmlns="http://www.w3.org/2000/svg">
<g clip-path="url(#clip0_2287_2890)">
<path d="M15.8333 6.66669L13.3333 4.16669M13.3333 4.16669L15.8333 1.66669M13.3333 4.16669L18.3333 4.16669M18.3333 10V14.3334C18.3333 15.7335 18.3333 16.4335 18.0609 16.9683C17.8212 17.4387 17.4387 17.8212 16.9683 18.0609C16.4335 18.3334 15.7335 18.3334 14.3333 18.3334H5.66667C4.26654 18.3334 3.56647 18.3334 3.0317 18.0609C2.56129 17.8212 2.17884 17.4387 1.93916 16.9683C1.66667 16.4335 1.66667 15.7335 1.66667 14.3334V5.66669C1.66667 4.26656 1.66667 3.56649 1.93916 3.03171C2.17884 2.56131 2.56129 2.17885 3.0317 1.93917C3.56647 1.66669 4.26654 1.66669 5.66667 1.66669H10M1.78793 16.6053C2.17888 15.1989 3.46881 14.1667 4.99981 14.1667H10.8331C11.6076 14.1667 11.9948 14.1667 12.3168 14.2307C13.6391 14.4938 14.6727 15.5274 14.9358 16.8497C14.9998 17.1717 14.9998 17.5589 14.9998 18.3334M11.6667 7.91669C11.6667 9.75764 10.1743 11.25 8.33334 11.25C6.49239 11.25 5.00001 9.75764 5.00001 7.91669C5.00001 6.07574 6.49239 4.58335 8.33334 4.58335C10.1743 4.58335 11.6667 6.07574 11.6667 7.91669Z" stroke="#6C7072" stroke-width="1.5" stroke-linecap="round" stroke-linejoin="round"/>
</g>
<defs>
<clipPath id="clip0_2287_2890">
<rect width="20" height="20" fill="white"/>
</clipPath>
</defs>
</svg>
